<svg width="180" height="180" viewBox="0 0 180 180" fill="none" xmlns="http://www.w3.org/2000/svg">
<path d="M0 16C0 7.16344 7.16344 0 16 0H164C172.837 0 180 7.16344 180 16V164C180 172.837 172.837 180 164 180H16C7.16344 180 0 172.837 0 164V16Z" fill="#282828"/>
<path d="M50.816 134.736C44.12 134.736 38.2093 133.537 33.084 131.14C27.9587 128.743 23.9493 125.312 21.056 120.848C18.1627 116.384 16.716 111.011 16.716 104.728V101.256H32.836V104.728C32.836 109.936 34.448 113.863 37.672 116.508C40.896 119.071 45.2773 120.352 50.816 120.352C56.4373 120.352 60.612 119.236 63.34 117.004C66.1507 114.772 67.556 111.92 67.556 108.448C67.556 106.051 66.8533 104.108 65.448 102.62C64.1253 101.132 62.1413 99.9333 59.496 99.024C56.9333 98.032 53.792 97.1227 50.072 96.296L47.22 95.676C41.268 94.3533 36.1427 92.7 31.844 90.716C27.628 88.6493 24.3627 85.9627 22.048 82.656C19.816 79.3493 18.7 75.0507 18.7 69.76C18.7 64.4693 19.94 59.964 22.42 56.244C24.9827 52.4413 28.5373 49.548 33.084 47.564C37.7133 45.4973 43.128 44.464 49.328 44.464C55.528 44.464 61.0253 45.5387 65.82 47.688C70.6973 49.7547 74.5 52.896 77.228 57.112C80.0387 61.2453 81.444 66.4533 81.444 72.736V76.456H65.324V72.736C65.324 69.4293 64.6627 66.784 63.34 64.8C62.1 62.7333 60.2813 61.2453 57.884 60.336C55.4867 59.344 52.6347 58.848 49.328 58.848C44.368 58.848 40.6893 59.7987 38.292 61.7C35.9773 63.5187 34.82 66.04 34.82 69.264C34.82 71.4133 35.3573 73.232 36.432 74.72C37.5893 76.208 39.284 77.448 41.516 78.44C43.748 79.432 46.6 80.3 50.072 81.044L52.924 81.664C59.124 82.9867 64.4973 84.6813 69.044 86.748C73.6733 88.8147 77.2693 91.5427 79.832 94.932C82.3947 98.3213 83.676 102.661 83.676 107.952C83.676 113.243 82.312 117.913 79.584 121.964C76.9387 125.932 73.136 129.073 68.176 131.388C63.2987 133.62 57.512 134.736 50.816 134.736ZM128.867 134.736C118.121 134.736 109.606 131.76 103.323 125.808C97.0406 119.773 93.8992 111.176 93.8992 100.016V79.184C93.8992 68.024 97.0406 59.468 103.323 53.516C109.606 47.4813 118.121 44.464 128.867 44.464C139.531 44.464 147.757 47.3987 153.543 53.268C159.413 59.0547 162.347 67.032 162.347 77.2V77.944H146.227V76.704C146.227 71.5787 144.781 67.3627 141.887 64.056C139.077 60.7493 134.737 59.096 128.867 59.096C123.081 59.096 118.534 60.8733 115.227 64.428C111.921 67.9827 110.267 72.8187 110.267 78.936V100.264C110.267 106.299 111.921 111.135 115.227 114.772C118.534 118.327 123.081 120.104 128.867 120.104C134.737 120.104 139.077 118.451 141.887 115.144C144.781 111.755 146.227 107.539 146.227 102.496V100.264H162.347V102C162.347 112.168 159.413 120.187 153.543 126.056C147.757 131.843 139.531 134.736 128.867 134.736Z" fill="#F7F7F7"/>
</svg>
